<svg width="33" height="20" viewBox="0 0 33 20" fill="none" xmlns="http://www.w3.org/2000/svg">
<path d="M0.813599 0.00433399C0.94795 0.0130018 1.0823 0.0303371 1.21665 0.0303371C4.18104 0.0303371 7.14975 0.0173356 10.1141 0.0390051C11.1846 0.0476729 12.2594 0.138684 13.2779 0.528735C15.0764 1.21782 16.1643 2.47899 16.3289 4.42491C16.381 5.06199 16.3549 5.72074 16.2423 6.34916C16.0429 7.46297 15.3625 8.26474 14.3787 8.81081C14.279 8.86715 14.1793 8.92349 14.084 8.98416C14.058 9.0015 14.0406 9.0275 13.993 9.08384C14.1013 9.14018 14.1967 9.20086 14.292 9.23986C16.1469 10.0416 16.9704 11.5195 17.0137 13.4697C17.0614 15.6237 16.1989 17.3356 14.383 18.5317C13.5423 19.0821 12.5888 19.3508 11.605 19.3985C9.8021 19.4852 7.9992 19.5069 6.19196 19.5329C4.51908 19.5545 2.85053 19.5329 1.17765 19.5372C1.05196 19.5372 0.930615 19.5545 0.804932 19.5632C0.804932 13.0407 0.804932 6.52251 0.804932 0L0.813599 0.00433399ZM4.75311 16.2001C6.62102 16.2001 8.44992 16.2218 10.2745 16.1871C10.9419 16.1741 11.605 16.0094 12.1251 15.5283C12.9052 14.8003 13.0352 13.8685 12.8922 12.8803C12.7491 11.8662 12.0947 11.2985 11.1369 11.0861C10.6429 10.9734 10.1271 10.9127 9.62007 10.9084C8.10754 10.8867 6.59068 10.9084 5.07815 10.8954C4.80078 10.8954 4.72711 10.9908 4.72711 11.2595C4.74011 12.7937 4.73144 14.3279 4.73144 15.8664C4.73144 15.9661 4.74444 16.0701 4.74878 16.2044L4.75311 16.2001ZM4.75744 7.74034C4.90913 7.75334 5.05215 7.77067 5.19517 7.77067C6.55168 7.77067 7.90819 7.77934 9.2647 7.77067C9.71109 7.77067 10.1661 7.75334 10.5995 7.66666C11.462 7.50197 12.2377 7.1856 12.4544 6.19747C12.4978 6.00678 12.5281 5.80742 12.5368 5.61239C12.5671 4.76295 12.2768 3.91351 11.3363 3.64481C10.7902 3.48879 10.2138 3.39344 9.64608 3.38044C8.11188 3.34577 6.57768 3.37177 5.04348 3.35877C4.79645 3.35877 4.72277 3.43244 4.72711 3.67948C4.74011 4.94064 4.73144 6.20614 4.73144 7.4673C4.73144 7.54964 4.74444 7.63199 4.75311 7.74034H4.75744Z" fill="#CCCCCC"/>
<path d="M27.5017 13.3397C25.9025 13.3397 24.3033 13.3397 22.7084 13.3397C22.1796 13.3397 22.1796 13.3397 22.2273 13.8598C22.314 14.7613 22.6174 15.5674 23.3151 16.1784C23.8482 16.6508 24.4853 16.9109 25.183 16.9889C26.1408 17.0929 27.0943 17.0669 27.9047 16.4428C28.1864 16.2261 28.4205 15.9314 28.6415 15.6454C28.7758 15.472 28.8929 15.3767 29.1225 15.381C30.1974 15.394 31.2765 15.3897 32.3513 15.381C32.5853 15.381 32.672 15.4287 32.5983 15.6887C32.3426 16.6162 31.8009 17.3573 31.1378 18.0247C30.0197 19.1558 28.6458 19.7322 27.0813 19.9186C25.5124 20.105 23.9869 19.9923 22.5134 19.3639C20.1297 18.3497 18.7862 16.5772 18.5132 13.9898C18.3528 12.4816 18.3745 10.9951 18.8165 9.53026C19.5446 7.11194 21.1698 5.59941 23.5968 5.00133C25.3434 4.56794 27.0943 4.67629 28.7888 5.33071C30.31 5.91579 31.3588 7.00359 32.0783 8.43811C32.6113 9.49992 32.828 10.6397 32.8324 11.8272C32.8324 12.1609 32.8367 12.4946 32.8454 12.8283C32.8511 13.1635 32.6908 13.3311 32.3643 13.3311C30.7434 13.3311 29.1269 13.3311 27.506 13.3311L27.5017 13.3397ZM28.9362 10.9171C28.9015 9.00152 27.5233 7.63201 25.1224 7.81403C23.6315 7.92671 22.171 9.52159 22.327 10.9171H28.9362Z" fill="#CCCCCC"/>
<path d="M25.5735 0.966287C26.8563 0.966287 28.1435 0.974955 29.4263 0.961953C29.6907 0.961953 29.7687 1.04863 29.7643 1.30433C29.7513 1.86774 29.7513 2.43114 29.7643 2.99455C29.7687 3.22425 29.6907 3.30226 29.4566 3.30226C26.865 3.29792 24.2776 3.29792 21.686 3.30226C21.4519 3.30226 21.3739 3.21991 21.3782 2.99022C21.3869 2.42681 21.3912 1.8634 21.3782 1.3C21.3696 1.03996 21.4606 0.957619 21.7206 0.961953C23.0035 0.974955 24.2906 0.966287 25.5735 0.966287Z" fill="#CCCCCC"/>
</svg>
