<svg width="11" height="20" viewBox="0 0 11 20" fill="none" xmlns="http://www.w3.org/2000/svg">
<path d="M7.04956 19.6823C7.04956 18.1085 7.04956 16.5377 7.04956 14.964H7.04662C7.04662 13.3902 7.04662 11.8194 7.04662 10.2456C7.04662 10.0103 7.07015 9.98676 7.30548 9.98676C8.08795 9.9897 8.86747 9.99265 9.64994 9.99559C9.83526 9.99559 9.89409 9.94558 9.92645 9.76614C10.0824 8.84836 10.2383 7.93352 10.3942 7.01574C10.4559 6.65686 10.4412 6.64215 10.0765 6.64215C9.13516 6.64215 8.1909 6.64804 7.24959 6.65098C7.14075 6.65098 7.04662 6.65098 7.04956 6.49507C7.05544 5.83615 7.04367 5.17723 7.05838 4.51831C7.07309 3.84762 7.56434 3.35932 8.23797 3.34755C8.891 3.33578 9.54698 3.34755 10.2 3.34461C10.4059 3.34461 10.453 3.29754 10.453 3.09752C10.453 2.14443 10.453 1.19135 10.453 0.241212C10.453 0.0470662 10.4089 0.00294161 10.2088 0C10.0176 0 9.82938 0.0147084 9.63817 0.0147084C9.01161 0.0147084 8.38799 0.0117668 7.76143 0.0147084C7.04073 0.0205916 6.3318 0.114723 5.64347 0.338285C4.64038 0.664804 3.88733 1.2796 3.46374 2.25916C3.15781 2.96514 3.0725 3.71525 3.05191 4.47419C3.03426 5.10957 3.04897 5.74496 3.04897 6.38035C3.04897 6.63921 3.0372 6.65098 2.7754 6.65098C2.21355 6.65098 1.6517 6.64509 1.08986 6.64509C0.892769 6.64509 0.845703 6.68628 0.845703 6.85101C0.845703 7.83351 0.845703 8.816 0.845703 9.79556C0.845703 9.95146 0.886886 9.99559 1.04573 9.99559C1.62817 9.99559 2.20767 9.99559 2.79011 9.9897C3.01367 9.9897 3.04897 10.0132 3.04897 10.2339C3.04897 13.3902 3.04603 16.5436 3.04603 19.7C3.04603 19.7706 3.04897 19.8235 3.05779 19.8647C3.17252 19.9088 3.2843 19.9559 3.40196 20C4.51389 20 5.62876 20 6.74069 20C7.0172 20 7.0525 19.9647 7.0525 19.6882L7.04956 19.6823Z" fill="#CCCCCC"/>
</svg>
