<svg width="32" height="32" viewBox="0 0 32 32" fill="none" xmlns="http://www.w3.org/2000/svg">
<g clip-path="url(#clip0_12_1660)">
<path d="M32.0001 15.9601C32.0399 24.6088 24.9339 32.0338 15.7302 31.8927C6.98646 31.7547 -0.024471 24.6241 6.42003e-05 15.8835C0.0245994 7.24096 7.08153 -0.113461 16.227 1.41824e-05C25.0597 0.110422 32.0338 7.30536 31.997 15.9571L32.0001 15.9601ZM17.4814 22.2718C17.4814 22.2718 17.4814 22.2718 17.4783 22.2718C17.4783 20.4593 17.4783 18.6467 17.4783 16.8342C17.4783 16.5613 17.5059 16.5337 17.7758 16.5367C18.6775 16.5398 19.5761 16.5429 20.4777 16.5459C20.6893 16.5459 20.7599 16.4907 20.7936 16.2791C20.9746 15.221 21.1555 14.166 21.3334 13.1079C21.4039 12.6939 21.3886 12.6755 20.9654 12.6786C19.8797 12.6786 18.7909 12.6847 17.7053 12.6878C17.5795 12.6878 17.4722 12.6878 17.4752 12.5099C17.4844 11.7493 17.4691 10.9887 17.4875 10.2312C17.5059 9.45832 18.0702 8.89708 18.8461 8.88175C19.6006 8.86641 20.3551 8.88175 21.1095 8.87868C21.3487 8.87868 21.4009 8.82654 21.4009 8.59346C21.4009 7.49551 21.4009 6.39756 21.4009 5.29961C21.4009 5.07573 21.3518 5.02359 21.1187 5.02359C20.901 5.02359 20.6801 5.03893 20.4624 5.03893C19.7417 5.03893 19.021 5.03586 18.3002 5.03893C17.4691 5.04506 16.6533 5.1524 15.859 5.41309C14.7028 5.79032 13.8348 6.4957 13.3472 7.62739C12.9945 8.44011 12.8964 9.30498 12.8718 10.179C12.8534 10.909 12.8688 11.642 12.8688 12.3749C12.8688 12.6755 12.8565 12.6878 12.5529 12.6878C11.9058 12.6878 11.2586 12.6816 10.6115 12.6786C10.3846 12.6786 10.3294 12.7246 10.3294 12.9147C10.3294 14.0464 10.3294 15.1781 10.3294 16.3098C10.3294 16.4907 10.3784 16.5398 10.5594 16.5398C11.228 16.5398 11.8996 16.5398 12.5682 16.5337C12.8289 16.5337 12.8657 16.5613 12.8657 16.8158C12.8657 20.4531 12.8626 24.0905 12.8596 27.7278C12.8596 28.0253 12.9056 28.0713 13.2 28.0713C14.5065 28.0713 15.813 28.0713 17.1195 28.0713C17.4354 28.0713 17.4783 28.0284 17.4783 27.7125C17.4783 25.9 17.4783 24.0874 17.4783 22.2749L17.4814 22.2718Z" fill="#43659F"/>
</g>
<defs>
<clipPath id="clip0_12_1660">
<rect width="32" height="31.8927" fill="white"/>
</clipPath>
</defs>
</svg>
