<svg width="84" height="84" viewBox="0 0 84 84" fill="none" xmlns="http://www.w3.org/2000/svg">
<g clip-path="url(#clip0_46_6977)">
<path d="M42 84C65.196 84 84 65.196 84 42C84 18.804 65.196 0 42 0C18.804 0 0 18.804 0 42C0 65.196 18.804 84 42 84Z" fill="#1FCA66"/>
<path d="M66.9633 61.5417H18.3296C17.8508 61.5417 17.459 61.251 17.459 60.8958C17.459 60.5406 17.8508 60.25 18.3296 60.25H66.9633C67.4422 60.25 67.834 60.5406 67.834 60.8958C67.834 61.251 67.4422 61.5417 66.9633 61.5417Z" fill="white"/>
<path d="M27.1633 40.8665C23.3263 40.8665 20.849 40.2492 20.6845 40.2069C20.2254 40.0885 19.9482 39.6233 20.0695 39.1751C20.1908 38.7269 20.6672 38.4562 21.1262 38.5746C22.131 38.8284 45.8463 44.52 61.0387 16.7805C61.2639 16.3661 61.7922 16.2139 62.208 16.4338C62.6324 16.6537 62.7883 17.1696 62.5631 17.5755C54.3 32.68 43.3778 38.0334 35.669 39.8686C32.4555 40.6297 29.5539 40.875 27.1633 40.875V40.8665Z" fill="white"/>
<path d="M63.2995 27.9556C62.9056 27.9891 62.5555 27.7048 62.5292 27.3202L61.6714 16.8602L52.1126 22.0191C51.7712 22.2031 51.3248 22.086 51.1322 21.7599C50.9397 21.4339 51.0622 21.0074 51.4036 20.8235L61.9427 15.1294C62.1528 15.0124 62.4154 15.0124 62.6343 15.1294C62.8531 15.2381 62.9932 15.4472 63.0107 15.6813L63.956 27.2115C63.9648 27.3453 63.9385 27.4791 63.8773 27.5878C63.7635 27.7884 63.5534 27.9306 63.2995 27.9473V27.9556Z" fill="white"/>
<path d="M29.0827 61.5417H20.041V51.2083H29.0827V61.5417ZM21.739 59.8975H27.3847V52.8525H21.739V59.8975Z" fill="white"/>
<path d="M40.7077 62.8333H31.666V46.0417H40.7077V62.8333ZM33.364 61.1164H39.0097V47.7586H33.364V61.1164Z" fill="white"/>
<path d="M52.3327 61.5417H43.291V37H52.3327V61.5417ZM44.989 59.8515H50.6347V38.6902H44.989V59.8515Z" fill="white"/>
<path d="M63.9577 62.8333H54.916V30.5417H63.9577V62.8333ZM56.614 61.0939H62.2597V32.281H56.614V61.0939Z" fill="white"/>
</g>
<defs>
<clipPath id="clip0_46_6977">
<rect width="84" height="84" fill="white"/>
</clipPath>
</defs>
</svg>
