<svg width="84" height="84" viewBox="0 0 84 84" fill="none" xmlns="http://www.w3.org/2000/svg">
<g clip-path="url(#clip0_46_7004)">
<path d="M42 84C65.196 84 84 65.196 84 42C84 18.804 65.196 0 42 0C18.804 0 0 18.804 0 42C0 65.196 18.804 84 42 84Z" fill="#816CDA"/>
<path d="M54.6911 15.0291C55.4055 13.9552 56.1243 12.8814 56.8387 11.8076L57.1461 11.3487C57.4146 10.946 57.2371 10.3138 56.8171 10.0887C56.3538 9.84185 55.8428 9.98906 55.5571 10.4177C54.8426 11.4915 54.1239 12.5654 53.4094 13.6392L53.102 14.0981C52.8336 14.5008 53.0111 15.133 53.4311 15.3581C53.8944 15.6049 54.4053 15.4577 54.6911 15.0291Z" fill="white"/>
<path d="M56.8155 18.5493C58.1664 17.6183 59.513 16.6917 60.8639 15.7608L61.4441 15.3625C61.8381 15.0897 62.059 14.5441 61.7732 14.1025C61.5177 13.7084 60.9375 13.479 60.5132 13.7734C59.1623 14.7043 57.8157 15.6309 56.4647 16.5618L55.8845 16.9602C55.4905 17.233 55.2697 17.7785 55.5555 18.2202C55.8109 18.6142 56.3911 18.8437 56.8155 18.5493Z" fill="white"/>
<path d="M40.4186 51.4002C39.163 51.4002 37.9593 50.8113 37.1885 49.8241L34.1836 46.4468H46.2164L43.8393 49.5557C43.0772 50.7117 41.8042 51.4002 40.4186 51.4002ZM38.2927 48.287L38.6347 48.6724C39.0591 49.2266 39.7259 49.5557 40.423 49.5557C41.1937 49.5557 41.8995 49.1703 42.3151 48.5251L42.3584 48.4645L42.4927 48.287H38.2927Z" fill="white"/>
<path d="M58.9076 22.9874C60.3365 22.7146 61.761 22.4462 63.1899 22.1734L63.8091 22.0565C64.2853 21.9656 64.5971 21.3724 64.4542 20.9221C64.2897 20.4155 63.8307 20.1816 63.3198 20.2769C61.8909 20.5497 60.4664 20.8181 59.0375 21.0909L58.4183 21.2078C57.942 21.2988 57.6303 21.8919 57.7732 22.3423C57.9377 22.8489 58.3967 23.0827 58.9076 22.9874Z" fill="white"/>
<path d="M39.405 40.7443L37.5908 40.4326C38.0238 37.9039 38.6559 32.6907 38.4698 28.3132C38.1147 28.2959 37.7467 28.2656 37.3656 28.2223C33.1656 27.7373 32.2867 25.226 32.1005 24.1695C31.7757 22.299 32.6894 20.3159 34.2265 19.5581C35.5211 18.9173 36.9889 19.2854 38.1494 20.541C39.3098 21.7967 39.9116 23.966 40.1844 26.4297C40.4529 26.4037 40.7083 26.3647 40.9508 26.3214C41.0677 24.6891 41.2885 23.1476 41.6522 21.8487C42.765 17.8868 44.5792 17.6227 45.3023 17.692C46.6186 17.8175 47.5712 19.1511 47.7271 21.0866C47.8267 22.312 47.3417 24.334 45.6357 25.9837C44.9776 26.6202 44.0294 27.2957 42.7131 27.7546C42.4922 33.639 43.4318 40.3633 43.4448 40.4542L41.6219 40.714C41.57 40.3503 40.691 34.0676 40.8512 28.2006C40.678 28.2266 40.5005 28.2482 40.3143 28.2656C40.5654 33.6649 39.5739 39.7181 39.4007 40.74L39.405 40.7443ZM35.5384 21.0909C35.3696 21.0909 35.205 21.1299 35.0448 21.2122C34.3434 21.5586 33.7112 22.667 33.919 23.8577C34.1615 25.2476 35.4605 26.1482 37.5778 26.395C37.8376 26.4254 38.0931 26.447 38.3355 26.4643C38.1104 24.4163 37.6384 22.7103 36.7941 21.7967C36.3654 21.3291 35.9411 21.0953 35.5341 21.0953L35.5384 21.0909ZM45.1075 19.5278C44.8044 19.5278 44.025 20.199 43.4232 22.3509C43.1461 23.3338 42.9642 24.4812 42.8473 25.7153C43.4924 25.3992 43.9861 25.0268 44.3584 24.6674C45.5145 23.546 45.9648 22.1084 45.8955 21.2468C45.8003 20.0777 45.35 19.5538 45.1291 19.5322C45.1248 19.5322 45.1162 19.5322 45.1118 19.5322L45.1075 19.5278Z" fill="white"/>
<path d="M40.9088 41.8831C37.8433 41.8831 34.899 40.8656 34.1326 40.4932C33.2146 40.0515 33.0587 38.8219 32.8206 36.9687C32.5911 35.1804 32.3053 32.9548 31.2965 31.946C28.7765 29.426 27.6507 26.2911 27.7546 22.0738C27.8629 17.7742 31.2792 10.9763 39.9952 10.9763C40.0212 10.9763 40.0472 10.9763 40.0775 10.9763C45.5548 11.0023 49.8111 13.4616 51.7509 17.7223C53.9245 22.4981 52.7338 28.5946 48.72 33.2493C46.4598 35.8732 46.9144 39.1639 46.9187 39.1942L46.9924 39.6792L46.6286 40.0126C45.0785 41.4241 42.9655 41.8788 40.9132 41.8788L40.9088 41.8831ZM35.0418 38.8868C36.2023 39.3847 41.9783 41.2033 45.0439 38.9344C44.9746 37.7134 45.0699 34.6608 47.3214 32.0499C50.8676 27.9365 51.9501 22.6107 50.0709 18.4887C48.4169 14.8559 44.8664 12.8468 40.0688 12.8208C40.0472 12.8208 40.0212 12.8208 39.9996 12.8208C32.5911 12.8208 29.6901 18.519 29.5992 22.1214C29.5082 25.8495 30.4305 28.4777 32.5998 30.6427C34.0546 32.0975 34.3837 34.6695 34.6478 36.7348C34.7474 37.5056 34.8816 38.5491 35.0418 38.8825V38.8868Z" fill="white"/>
<path d="M40.7008 48.4039C40.2981 48.4039 39.9084 48.3996 39.5404 48.3909C34.6736 48.2697 34.2969 47.6462 34.0717 47.2738C33.6171 46.5161 33.6907 45.9012 33.8336 45.5202C33.8812 45.3903 33.9808 45.0699 33.8639 44.8577C33.7037 44.559 33.6127 44.2299 33.5954 43.8705C33.5781 43.4765 33.695 43.0955 33.9418 42.7664C33.9938 42.6971 33.9591 42.5585 33.9029 42.459C33.773 42.2338 33.6864 41.9827 33.6474 41.7142C33.5738 41.1946 33.695 40.714 34.0024 40.32C34.561 39.6012 35.5222 39.4627 35.7128 39.4453L36.0029 39.415L36.2583 39.5536C38.2804 40.6707 42.7229 40.0948 44.2946 39.7701C44.5977 39.6922 45.7971 39.4367 46.6068 40.0429C47.0268 40.359 47.2649 40.8439 47.2779 41.4155C47.2866 41.9004 47.1393 42.3334 46.8449 42.6755C47.0744 42.9569 47.2173 43.2816 47.2606 43.6237C47.3212 44.0783 47.2 44.5157 46.9185 44.8837C46.8969 44.9097 46.8839 44.9357 46.8796 44.9573C47.2433 45.4379 47.3558 46.0138 47.1956 46.555C47.0614 47.0097 46.6717 47.6289 45.5936 47.9882C44.641 48.3043 42.5626 48.4126 40.7051 48.4126L40.7008 48.4039ZM35.5742 46.161C36.8645 46.5983 43.4459 46.7499 45.009 46.2303C45.2255 46.1567 45.3381 46.0874 45.3901 46.0398C44.8965 45.4033 44.9051 44.5243 45.4031 43.8229C45.3987 43.8185 45.3901 43.8099 45.3857 43.8056C45.087 43.5111 44.9224 43.1128 44.9224 42.6884C44.9224 42.2511 45.1043 41.8181 45.416 41.4977C45.2515 41.4761 44.9614 41.4977 44.7363 41.554L44.6886 41.567C44.4418 41.619 38.8173 42.7664 35.6868 41.3289C35.5915 41.3592 35.5092 41.4025 35.4703 41.4371C35.4703 41.4414 35.4703 41.4458 35.4703 41.4544C35.4746 41.4847 35.4833 41.5107 35.4919 41.5324C35.9292 42.2814 35.9119 43.1864 35.44 43.8402C35.4486 43.8965 35.4616 43.9398 35.4833 43.9788C35.8253 44.6023 35.8513 45.3773 35.5655 46.1567C35.5655 46.1567 35.5655 46.1567 35.5742 46.1697V46.161Z" fill="white"/>
<path d="M23.1599 63.5023L22.7269 63.2468C22.4108 63.0606 14.9937 58.5445 12.569 47.2565C10.811 39.0643 13.2358 33.4225 15.8467 31.0843C16.6694 30.3482 17.3795 30.0755 17.964 30.2703C19.0552 30.634 19.0075 31.894 18.9123 34.1759C18.8343 36.1113 18.7261 38.7612 19.1981 41.7445C19.6657 44.6932 20.8867 47.2565 21.9259 49.0014C22.0125 48.1441 22.1597 47.3561 22.3113 46.8148C22.3935 46.5118 22.5018 45.9965 22.6273 45.4033C23.4284 41.567 23.9609 39.926 25.169 39.6835C25.5024 39.6142 26.1475 39.6229 26.7191 40.4456C28.464 42.9656 27.9878 45.4856 27.3816 47.3994C27.0655 48.4039 27.4205 49.088 28.1393 50.3177C28.4987 50.9326 28.91 51.634 29.2261 52.4783C30.1614 54.968 29.6634 59.601 29.6418 59.7959L29.5855 60.2938L23.1642 63.5066L23.1599 63.5023ZM17.1154 32.392C15.5913 33.6953 12.569 38.4755 14.3702 46.8668C16.3014 55.8643 21.7397 60.2981 23.2638 61.3893L27.8535 59.0944C27.9748 57.6006 28.0743 54.6476 27.4985 53.1192C27.2387 52.4221 26.888 51.8202 26.5459 51.24C25.8055 49.9757 25.0434 48.668 25.6236 46.8365C26.2948 44.7235 26.2471 43.247 25.4461 41.8701C25.0434 42.827 24.6277 44.8188 24.4286 45.7757C24.2987 46.4035 24.1818 46.9491 24.0822 47.3085C23.7877 48.352 23.528 50.5082 23.7921 51.8332L24.4849 55.2885L22.19 52.6126C22.0341 52.4307 18.3278 48.0489 17.3752 42.026C16.8772 38.8608 16.9898 36.107 17.0721 34.0979C17.0981 33.5047 17.124 32.8639 17.1154 32.392Z" fill="white"/>
<path d="M27.3724 71.4433L26.697 69.7286L34.4735 66.6717C34.2267 65.9183 33.8716 64.7752 33.6161 63.6754C33.3477 62.5367 32.7285 61.0299 31.8669 60.5233C31.5811 60.3587 31.2996 60.3241 30.9706 60.415C29.4854 60.8394 24.2419 63.2728 20.9988 64.8229L24.1293 69.7806L22.5706 70.7635L18.3359 64.0608L19.2669 63.6105C19.6349 63.433 28.2644 59.2719 30.464 58.6441C31.2737 58.4146 32.0834 58.5142 32.7978 58.9342C34.5124 59.9431 35.2269 62.4934 35.4087 63.2511C35.8114 64.9614 36.4869 66.8752 36.4955 66.8969L36.7943 67.7369L27.3724 71.439V71.4433Z" fill="white"/>
<path d="M31.1793 63.2165C31.7723 63.2165 32.2531 62.7357 32.2531 62.1427C32.2531 61.5496 31.7723 61.0688 31.1793 61.0688C30.5862 61.0688 30.1055 61.5496 30.1055 62.1427C30.1055 62.7357 30.5862 63.2165 31.1793 63.2165Z" fill="white"/>
<path d="M60.8382 63.3464L54.4169 60.1336L54.3606 59.6357C54.339 59.4408 53.841 54.8078 54.7763 52.3181C55.0924 51.4738 55.5037 50.7724 55.8631 50.1575C56.5775 48.9321 56.9369 48.248 56.6208 47.2392C56.0147 45.3253 55.5427 42.8053 57.2833 40.2853C57.8505 39.4627 58.4957 39.454 58.8334 39.5233C60.0415 39.7701 60.574 41.4111 61.3751 45.2431C61.5006 45.8406 61.6089 46.3559 61.6911 46.6546C61.8427 47.1915 61.9899 47.9796 62.0765 48.8412C63.1157 47.0963 64.341 44.533 64.8043 41.5843C65.2763 38.601 65.1681 35.9511 65.0901 34.0157C64.9949 31.7338 64.9472 30.4738 66.0384 30.1101C66.6229 29.9152 67.333 30.1924 68.1557 30.9241C70.7666 33.2623 73.1957 38.8998 71.4334 47.0963C69.0087 58.3843 61.5916 62.9004 61.2755 63.0866L60.8425 63.342L60.8382 63.3464ZM56.1446 58.9385L60.7342 61.2334C62.2584 60.1423 67.6967 55.7128 69.6278 46.7109C71.4291 38.3196 68.4068 33.5394 66.8827 32.2361C66.874 32.708 66.9043 33.3489 66.926 33.942C67.0083 35.9555 67.1208 38.7093 66.6229 41.8701C65.6703 47.8886 61.9639 52.2705 61.8081 52.4567L59.5132 55.1326L60.206 51.6773C60.4701 50.3524 60.206 48.1961 59.9159 47.1526C59.8163 46.7932 59.6994 46.2476 59.5695 45.6198C59.3703 44.6672 58.9547 42.6711 58.552 41.7142C57.7509 43.0911 57.7033 44.5676 58.3745 46.6806C58.9547 48.5122 58.1883 49.8198 57.4522 51.0841C57.1144 51.6643 56.7637 52.2662 56.4996 52.9633C55.9237 54.4961 56.0233 57.4447 56.1446 58.9385Z" fill="white"/>
<path d="M56.625 71.2917L47.2031 67.5897L47.5019 66.7497C47.5019 66.7497 48.186 64.8142 48.5887 63.1039C48.7662 62.3462 49.4807 59.7959 51.1996 58.787C51.9184 58.367 52.7237 58.2674 53.5334 58.4969C55.733 59.1247 64.3668 63.2858 64.7305 63.4633L65.6615 63.9136L61.4268 70.6163L59.8681 69.6334L62.9986 64.6756C59.7555 63.1255 54.512 60.6921 53.0268 60.2678C52.6978 60.1726 52.412 60.2072 52.1305 60.3761C51.2689 60.8827 50.6497 62.3895 50.3813 63.5282C50.1215 64.6237 49.7708 65.7711 49.524 66.5245L57.3004 69.5814L56.625 71.2961V71.2917Z" fill="white"/>
<path d="M52.8199 63.0649C53.413 63.0649 53.8937 62.5842 53.8937 61.9911C53.8937 61.3981 53.413 60.9173 52.8199 60.9173C52.2269 60.9173 51.7461 61.3981 51.7461 61.9911C51.7461 62.5842 52.2269 63.0649 52.8199 63.0649Z" fill="white"/>
</g>
<defs>
<clipPath id="clip0_46_7004">
<rect width="84" height="84" fill="white"/>
</clipPath>
</defs>
</svg>
