<svg width="84" height="84" viewBox="0 0 84 84" fill="none" xmlns="http://www.w3.org/2000/svg">
<g clip-path="url(#clip0_46_7020)">
<path d="M42 84C65.196 84 84 65.196 84 42C84 18.804 65.196 0 42 0C18.804 0 0 18.804 0 42C0 65.196 18.804 84 42 84Z" fill="#F9875A"/>
<path d="M28.5651 29.3957C29.8728 29.5472 31.1068 29.2788 32.3408 29.032C34.2849 28.6379 36.2334 28.3738 38.1688 28.993C38.9915 29.2571 39.7752 29.6511 40.5633 30.0192C40.8144 30.1361 40.9876 30.2054 41.2604 30.0408C43.9406 28.4258 46.7464 28.2742 49.6431 29.3697C50.6996 29.768 51.7387 30.214 52.8039 30.5951C53.4794 30.8375 54.1851 31.0194 54.9385 30.725C54.8996 30.5561 54.8649 30.4175 54.8303 30.279C54.5229 28.941 55.1594 27.6551 56.4367 27.1528C57.8482 26.5942 59.2728 26.0617 60.706 25.5637C62.1825 25.0485 63.5853 25.7845 64.1612 27.326C65.9841 32.2231 67.7983 37.1202 69.6169 42.013C69.855 42.6538 70.1062 43.2946 70.327 43.9441C70.8293 45.4163 70.1884 46.8192 68.7379 47.3864C67.4086 47.906 66.0707 48.3953 64.7328 48.8845C63.2173 49.4388 61.8794 48.8759 61.1736 47.4124C61.1303 47.3258 61.0697 47.2435 60.9484 47.1612C61.0567 48.4905 61.0004 49.7678 60.1084 50.8373C59.1688 51.9631 57.9695 52.1363 56.6272 51.6903C56.8264 54.8208 54.0726 56.5831 51.466 55.7258C51.5266 56.8472 51.2625 57.8561 50.5047 58.6918C49.7383 59.5404 48.7511 59.8998 47.5734 59.9431C47.7379 61.3633 47.3352 62.567 46.1185 63.3724C44.8802 64.1951 43.6505 63.8876 42.4338 63.1732C41.6544 64.6367 40.6196 65.7322 38.84 65.4767C37.147 65.2342 36.1511 64.1085 35.5796 62.5194C33.2891 63.2944 31.5614 62.6579 30.479 60.428C29.0458 61.2594 27.6082 61.294 26.2616 60.2938C24.9627 59.3283 24.6423 57.9687 24.9367 56.4056C24.5643 56.3796 24.1919 56.3883 23.8326 56.319C21.3905 55.8513 20.1435 53.3313 21.2433 51.0971C21.5204 50.5342 21.8408 49.9887 22.1223 49.4258C22.2175 49.2396 22.2608 49.0318 22.3691 48.6984C22.1352 48.8196 22.04 48.8542 21.9577 48.9105C21.2086 49.4431 20.399 49.5643 19.5286 49.2872C18.1864 48.8586 16.8441 48.4386 15.5062 47.9969C13.8478 47.4513 13.1377 46.0701 13.6703 44.4074C15.1425 39.8221 16.6233 35.241 18.0998 30.6557C18.4245 29.6511 18.7363 28.6423 19.0697 27.6421C19.5979 26.0487 20.9835 25.3386 22.5856 25.8365C23.7719 26.2045 24.9367 26.6289 26.1317 26.9623C27.4177 27.3217 28.3227 28.0101 28.5521 29.3957H28.5651ZM40.5503 56.7217C40.5546 56.687 40.5633 56.6524 40.5676 56.6177C40.442 56.5441 40.3165 56.4705 40.1952 56.3882C39.8012 56.1198 39.6627 55.7561 39.9138 55.3361C40.1433 54.9464 40.507 54.8511 40.9227 55.0417C41.0915 55.1196 41.2517 55.2105 41.4163 55.2971C43.1656 56.228 44.9105 57.1676 46.6728 58.0812C47.9804 58.761 49.4526 58.1419 49.8423 56.7823C50.128 55.7951 49.721 54.8165 48.7208 54.245C47.5777 53.5955 46.4086 52.9893 45.2482 52.3658C44.6767 52.0584 44.0965 51.7682 43.5336 51.4435C43.1266 51.2097 42.975 50.8417 43.2088 50.4043C43.4427 49.967 43.8237 49.9064 44.2567 50.0926C44.3909 50.1489 44.5208 50.2268 44.6507 50.2961C46.9845 51.5474 49.3227 52.7988 51.6521 54.0588C52.254 54.3835 52.8775 54.5047 53.527 54.2926C54.3973 54.0068 54.9299 53.4006 55.0381 52.4827C55.155 51.4955 54.761 50.7334 53.895 50.2571C51.6392 49.0188 49.3703 47.7977 47.1058 46.568C46.9282 46.4728 46.7377 46.3775 46.5905 46.2433C46.1618 45.845 46.2961 45.1478 46.859 45.0006C47.1101 44.9357 47.4478 45.0179 47.686 45.1435C49.4396 46.0701 51.1759 47.0313 52.9208 47.9709C54.2761 48.7027 55.6227 49.4431 56.9952 50.1359C58.0864 50.6814 58.9134 50.2918 59.2901 49.1357C59.6798 47.9363 59.3724 46.8235 58.186 45.9619C56.9303 45.0526 55.601 44.2299 54.2414 43.4808C52.3579 42.446 50.3575 41.6146 48.526 40.5062C47.2183 39.7138 45.967 39.6229 44.6031 40.0689C43.1959 40.5278 41.8146 41.0777 40.3987 41.5064C37.1946 42.4763 34.7959 41.7532 32.9513 39.3501C32.6396 38.9431 32.5616 38.5447 32.8647 38.1334C33.2891 37.5489 33.6917 36.9384 34.1983 36.4274C35.8697 34.7431 37.5843 33.0977 39.2773 31.4351C39.3509 31.3658 39.4029 31.2748 39.4722 31.1839C37.8354 30.2617 36.1208 30.0365 34.3282 30.2746C32.4058 30.5301 30.5266 31.1406 28.5478 31.0021C28.4396 30.9934 28.2491 31.1926 28.2058 31.3268C26.7639 35.765 25.3177 40.2031 23.9105 44.6542C23.694 45.334 23.668 46.0744 23.5511 46.7889C24.8587 45.8666 26.1577 45.4899 27.5736 46.0961C28.9721 46.6979 29.7255 47.854 29.9334 49.3478C32.8214 49.2439 33.6354 49.8544 34.5707 52.8161C35.7961 52.5303 36.9218 52.7555 37.8917 53.5868C38.8616 54.4181 39.208 55.5223 39.1387 56.7346H40.5633L40.5503 56.7217ZM34.3585 38.5751C34.4495 38.6963 34.5014 38.7742 34.562 38.8435C35.9086 40.3633 37.5973 40.701 39.4722 40.1555C40.927 39.7311 42.3429 39.1726 43.7847 38.6963C44.9928 38.2979 46.2398 37.9819 47.4911 38.3629C48.2575 38.5924 48.9546 39.0557 49.6734 39.4194C51.6565 40.4239 53.6482 41.4111 55.6097 42.4546C57.1338 43.2643 58.619 44.139 59.8443 45.386C59.9915 45.5332 60.2037 45.6111 60.3899 45.7237C60.3639 45.5072 60.3769 45.2734 60.3033 45.0742C59.2944 42.3291 58.2726 39.5883 57.255 36.8474C56.6835 35.306 56.1076 33.7645 55.5404 32.2361C53.7998 32.5132 53.107 32.4309 51.4443 31.7598C50.7255 31.4697 50.0025 31.1796 49.2837 30.8852C46.3264 29.6858 43.5163 30.0322 41.0785 32.0456C39.0695 33.7039 37.2639 35.6091 35.3804 37.419C35.0124 37.774 34.7006 38.194 34.3629 38.5837L34.3585 38.5751ZM61.4897 26.9579C61.3771 26.9882 61.1779 27.0272 60.9917 27.0965C59.7404 27.5555 58.4891 28.0188 57.242 28.4907C56.3631 28.8241 56.1249 29.3437 56.454 30.24C58.4717 35.6913 60.4938 41.147 62.5202 46.5984C62.8579 47.512 63.3732 47.7328 64.3084 47.3864C65.5078 46.9447 66.7029 46.4988 67.9023 46.0528C68.9328 45.6674 69.1449 45.2041 68.7596 44.165C67.5732 40.9695 66.3868 37.774 65.2004 34.5829C64.3691 32.3443 63.5334 30.1058 62.7064 27.8629C62.5072 27.326 62.1825 26.9753 61.4853 26.9623L61.4897 26.9579ZM15.0472 45.2604C15.0385 45.9229 15.32 46.2909 15.9392 46.4988C17.2554 46.9361 18.5761 47.3691 19.901 47.7847C20.7237 48.0445 21.2433 47.7588 21.5204 46.9144C23.3173 41.3635 25.1056 35.8126 26.8938 30.2573C27.1839 29.361 26.9068 28.8414 26.0105 28.5513C24.7938 28.1573 23.5771 27.7676 22.3604 27.3779C21.2779 27.0315 20.8319 27.2567 20.4812 28.3392C18.7233 33.7862 16.961 39.2289 15.2031 44.6759C15.1295 44.9054 15.0775 45.1392 15.0429 45.2604H15.0472ZM26.3136 57.3755C26.3872 58.3973 26.9501 59.1421 27.907 59.4062C28.8336 59.666 29.7818 59.285 30.2711 58.3973C31.0765 56.9381 31.8559 55.466 32.6309 53.9895C33.2241 52.8551 32.882 51.6167 31.8429 51.0625C30.7907 50.5039 29.5827 50.9023 28.9721 52.028C28.2058 53.4439 27.4394 54.8641 26.699 56.293C26.5258 56.6307 26.4435 57.0118 26.3179 57.3755H26.3136ZM24.4344 54.8252C25.2138 54.8338 25.8806 54.4788 26.2703 53.7773C26.8981 52.6429 27.5173 51.5041 28.0975 50.3437C28.6171 49.3132 28.2101 48.1831 27.1709 47.5856C26.2876 47.0833 25.0406 47.3951 24.495 48.3303C23.8152 49.4994 23.1658 50.6858 22.5856 51.9068C21.9317 53.2794 22.9363 54.8078 24.4344 54.8208V54.8252ZM33.9212 61.2897C34.6616 61.2897 35.2895 61.0126 35.6575 60.3804C36.281 59.3109 36.8785 58.2198 37.4111 57.1027C37.8744 56.1371 37.4284 54.981 36.4932 54.4788C35.5363 53.9635 34.3196 54.2536 33.7653 55.1975C33.1592 56.2324 32.5746 57.2932 32.068 58.38C31.4229 59.7612 32.4144 61.2724 33.9212 61.2897ZM39.2253 63.9612C39.8445 63.9829 40.3165 63.6711 40.6022 63.1732C41.0872 62.3289 41.5288 61.4499 41.9272 60.5579C42.1437 60.0687 42.122 59.5491 41.7324 59.0988C40.6499 57.8474 38.827 57.9903 37.9697 59.4062C37.7012 59.8478 37.4587 60.3068 37.2336 60.7701C36.5928 62.0994 37.7445 63.9309 39.2253 63.9569V63.9612ZM42.7023 57.7435C43.9016 58.9689 43.7501 60.3458 43.1612 61.753C44.3952 62.6017 45.4387 62.4241 45.9194 61.307C46.2917 60.4454 45.9757 59.5361 45.0924 59.0338C44.3043 58.5835 43.499 58.1722 42.7023 57.7435Z" fill="white"/>
</g>
<defs>
<clipPath id="clip0_46_7020">
<rect width="84" height="84" fill="white"/>
</clipPath>
</defs>
</svg>
