<svg width="84" height="84" viewBox="0 0 84 84" fill="none" xmlns="http://www.w3.org/2000/svg">
<g clip-path="url(#clip0_46_6940)">
<path d="M42 84C65.196 84 84 65.196 84 42C84 18.804 65.196 0 42 0C18.804 0 0 18.804 0 42C0 65.196 18.804 84 42 84Z" fill="#F27095"/>
<path d="M41.979 61.1338C39.1776 61.1338 36.3761 61.1338 33.5747 61.1338C32.5182 61.1338 32.3017 60.9346 32.1675 59.9041C31.7258 56.5268 30.7516 53.3443 28.604 50.6251C27.9675 49.8198 27.3093 49.0317 26.6295 48.2654C24.4343 45.78 23.5033 42.8487 23.3431 39.5753C23.079 34.2148 24.6334 29.5126 28.2576 25.5507C30.8728 22.6887 34.0856 20.8051 37.8916 19.9565C41.0308 19.255 44.1569 19.307 47.2268 20.2379C52.5656 21.8573 56.4928 25.1957 58.9176 30.2357C60.6668 33.8641 61.0046 37.6874 60.4633 41.6449C60.0693 44.5287 58.7097 46.8971 56.7656 48.9668C54.159 51.7423 52.5743 54.994 51.9984 58.748C51.9334 59.1767 51.8555 59.6054 51.8079 60.0383C51.7126 60.861 51.4182 61.1381 50.5955 61.1381C47.7248 61.1381 44.8541 61.1381 41.9833 61.1381L41.979 61.1338ZM41.9833 59.4322C41.9833 59.4322 41.9833 59.4278 41.9833 59.4235C44.473 59.4235 46.9584 59.4105 49.4481 59.4322C49.933 59.4365 50.1582 59.3196 50.2361 58.8043C50.5089 56.9771 50.9852 55.2019 51.6866 53.4872C52.5743 51.3266 53.9858 49.5254 55.5229 47.8107C57.2592 45.8753 58.4543 43.7016 58.792 41.0777C59.2813 37.2847 58.8526 33.6476 57.0124 30.253C53.0722 22.9788 44.88 19.5798 37.0256 21.9309C30.0978 24.0049 25.14 30.66 25.0101 37.8866C24.9365 41.9524 26.1229 45.4466 28.9547 48.4212C29.9722 49.4907 30.8035 50.7724 31.5613 52.0497C32.7303 54.0111 33.3149 56.2021 33.6656 58.4493C33.8215 59.4322 33.8128 59.4322 34.7784 59.4322C37.1771 59.4322 39.5802 59.4322 41.979 59.4322H41.9833Z" fill="white"/>
<path d="M41.9861 65.4248C39.6393 65.4248 37.2925 65.4248 34.9413 65.4248C34.5127 65.4248 34.084 65.3555 33.9671 64.9052C33.8978 64.628 33.9498 64.2037 34.1273 64.0089C34.3135 63.8054 34.7118 63.7144 35.0149 63.7101C37.1019 63.6841 39.1889 63.6928 41.276 63.6885C43.7094 63.6885 46.1471 63.6885 48.5805 63.6885C48.823 63.6885 49.0698 63.6798 49.3079 63.7101C49.8362 63.7751 50.1263 64.0955 50.1133 64.5588C50.096 65.0524 49.7712 65.3858 49.2343 65.3988C48.2947 65.4204 47.3551 65.4161 46.4155 65.4161C44.939 65.4161 43.4582 65.4161 41.9817 65.4161L41.9861 65.4248Z" fill="white"/>
<path d="M42.0181 69.0705C40.1909 69.0705 38.368 69.0662 36.5408 69.0705C36.0732 69.0705 35.7138 68.932 35.5666 68.4643C35.3847 67.8928 35.7961 67.3775 36.4585 67.3689C38.0736 67.3559 39.693 67.3646 41.308 67.3646C43.3777 67.3646 45.4474 67.3732 47.5171 67.3689C47.9457 67.3689 48.3224 67.5074 48.4047 67.9318C48.4567 68.2132 48.3614 68.5942 48.1882 68.8237C48.0583 68.9969 47.6989 69.0619 47.4435 69.0662C45.6336 69.0878 43.828 69.0749 42.0181 69.0749V69.0705Z" fill="white"/>
<path d="M41.969 72.7379C40.5792 72.7379 39.1893 72.7379 37.795 72.7379C37.3404 72.7379 36.968 72.5951 36.8295 72.1144C36.6606 71.5386 37.0633 71.045 37.7387 71.032C38.8688 71.0103 39.9989 71.0146 41.129 71.019C42.8134 71.019 44.502 71.0276 46.1864 71.032C46.6237 71.032 46.9787 71.1619 47.1389 71.6035C47.3511 72.1794 46.9398 72.725 46.2383 72.7336C44.8138 72.7553 43.3893 72.7379 41.9604 72.7423L41.969 72.7379Z" fill="white"/>
<path d="M16.3149 39.2462C15.2541 39.2462 14.1976 39.2462 13.1368 39.2462C12.5652 39.2462 12.2102 38.9301 12.2015 38.4278C12.1885 37.9299 12.5349 37.5575 13.1021 37.5532C15.2541 37.5359 17.4061 37.5359 19.558 37.5445C20.1729 37.5445 20.5149 37.8909 20.5106 38.4148C20.5106 38.9431 20.1729 39.2419 19.5407 39.2462C18.4626 39.2548 17.3887 39.2462 16.3106 39.2462H16.3149Z" fill="white"/>
<path d="M67.6718 37.5359C68.75 37.5359 69.8281 37.5229 70.9063 37.5402C71.5861 37.5532 71.9974 38.1377 71.6986 38.7136C71.5774 38.9431 71.244 39.2072 71.0059 39.2115C68.7803 39.2548 66.5547 39.2548 64.3292 39.2418C63.7749 39.2418 63.4935 38.8998 63.5021 38.3802C63.5108 37.8952 63.8442 37.5618 64.3854 37.5532C65.4809 37.5359 66.5764 37.5489 67.6718 37.5489V37.5402V37.5359Z" fill="white"/>
<path d="M31.7809 19.1728C31.5601 19.4066 31.3653 19.7313 31.0838 19.8786C30.6941 20.0777 30.3347 19.8569 30.1183 19.4975C29.6463 18.7268 29.1917 17.9474 28.7413 17.168C28.1135 16.0856 27.4727 15.0161 26.8968 13.9076C26.7496 13.6262 26.7106 13.1672 26.8405 12.8944C27.1263 12.3012 27.91 12.3402 28.2737 12.9421C29.1051 14.3276 29.9018 15.7262 30.7115 17.1247C30.9626 17.5577 31.2224 17.9907 31.4649 18.4324C31.5731 18.6272 31.6424 18.8394 31.7853 19.1728H31.7809Z" fill="white"/>
<path d="M16.8122 53.812C16.5957 53.6128 16.2753 53.4353 16.1454 53.1625C15.9505 52.7641 16.1108 52.3701 16.5048 52.132C17.1456 51.7466 17.7951 51.3786 18.4446 51.0062C19.6656 50.3048 20.8823 49.5946 22.1077 48.9062C22.7875 48.5252 23.4543 48.8369 23.5062 49.5384C23.5409 49.993 23.2421 50.2311 22.9 50.4303C21.5448 51.2097 20.1852 51.9848 18.8299 52.7641C18.3926 53.0153 17.9596 53.2794 17.518 53.5219C17.3404 53.6215 17.1369 53.6821 16.8122 53.812Z" fill="white"/>
<path d="M57.4233 13.2149C57.2718 13.5699 57.1982 13.8037 57.0769 14.0072C56.0854 15.7392 55.0895 17.4711 54.085 19.1988C53.9811 19.3763 53.8685 19.5625 53.7213 19.701C53.4225 19.9825 53.0761 20.0388 52.7254 19.792C52.4006 19.5625 52.2145 19.2421 52.366 18.8481C52.4959 18.5103 52.6864 18.1942 52.8683 17.8782C53.8079 16.2371 54.7518 14.5961 55.7 12.9551C55.9209 12.5697 56.2759 12.3272 56.6959 12.5221C56.986 12.6563 57.1895 12.9767 57.419 13.2062L57.4233 13.2149Z" fill="white"/>
<path d="M23.5117 27.0532C23.4944 27.9322 22.8232 28.3002 22.1954 27.9495C21.1346 27.3563 20.0867 26.7371 19.0302 26.1309C18.2768 25.6979 17.5234 25.2649 16.7744 24.8233C16.1032 24.4293 15.9257 24.0136 16.1941 23.5287C16.4713 23.0307 16.9346 22.9484 17.5927 23.3251C19.3896 24.3513 21.1822 25.3862 22.9574 26.4427C23.2259 26.6029 23.3948 26.919 23.5117 27.0489V27.0532Z" fill="white"/>
<path d="M66.9787 23.0827C67.4766 23.0783 67.7537 23.2948 67.875 23.6802C68.0006 24.0829 67.901 24.4379 67.5113 24.6674C66.641 25.174 65.775 25.6849 64.9047 26.1872C63.8698 26.7847 62.835 27.3952 61.7828 27.9668C61.1593 28.3045 60.4665 27.8975 60.5272 27.2177C60.5488 26.9666 60.735 26.6332 60.9428 26.5076C62.8177 25.3862 64.7185 24.2994 66.6107 23.2126C66.7406 23.139 66.9008 23.113 66.9787 23.087V23.0827Z" fill="white"/>
<path d="M67.9234 52.6948C67.9148 53.5478 67.2826 53.9332 66.6591 53.6171C66.0399 53.301 65.4467 52.9373 64.8449 52.5866C63.5805 51.8548 62.3205 51.1231 61.0562 50.3913C60.7228 50.1965 60.4674 49.954 60.5107 49.5254C60.5843 48.8196 61.1904 48.5208 61.8616 48.8932C62.983 49.521 64.0915 50.1749 65.2043 50.82C65.9403 51.2443 66.6937 51.6513 67.4082 52.1103C67.6593 52.2705 67.8152 52.5693 67.9191 52.6948H67.9234Z" fill="white"/>
<path d="M42.8481 12.8381C42.8481 13.8817 42.8524 14.9208 42.8481 15.9643C42.8438 16.5748 42.5234 16.9386 42.0081 16.9386C41.5145 16.9386 41.1508 16.5532 41.1508 15.9643C41.1421 13.847 41.1378 11.7254 41.1508 9.60804C41.1551 8.84598 41.6574 8.45196 42.2852 8.66413C42.7052 8.80701 42.8611 9.1231 42.8568 9.55176C42.8481 10.6472 42.8568 11.7384 42.8568 12.8338C42.8568 12.8338 42.8568 12.8338 42.8524 12.8338L42.8481 12.8381Z" fill="white"/>
<path d="M35.5914 28.088C36.8384 28.101 38.3236 28.7202 39.7698 29.4606C40.3586 29.7594 40.9302 30.0971 41.4757 30.4608C41.8481 30.7076 42.1296 30.7076 42.5106 30.4608C44.0131 29.4736 45.5935 28.6249 47.3731 28.2526C47.9922 28.1227 48.4599 27.8759 48.9188 27.4299C50.0403 26.3388 51.9757 26.5076 53.0322 27.7113C54.0454 28.8674 53.8982 30.7076 52.7508 31.7641C52.5083 31.9849 52.3221 32.3443 52.2572 32.6734C51.8805 34.5872 50.9842 36.2672 49.9494 37.8866C49.7026 38.2719 49.6896 38.5404 49.9407 38.9128C50.9193 40.359 51.7593 41.9004 52.1143 43.6194C52.2962 44.5027 52.3221 45.4596 52.1966 46.3515C51.9974 47.7977 50.6898 48.733 49.0357 48.7676C47.3471 48.8023 45.836 48.1831 44.3768 47.4297C43.697 47.079 43.0432 46.6806 42.398 46.2693C42.1036 46.0788 41.8957 46.0788 41.6013 46.2693C40.1291 47.2392 38.5964 48.0922 36.8557 48.4862C36.2322 48.6247 35.5828 48.733 34.9463 48.72C32.396 48.6767 31.3957 46.7845 31.6469 44.6932C31.885 42.7317 32.6861 40.9781 33.7685 39.3674C34.2448 38.6573 34.2838 38.155 33.7772 37.4406C32.9026 36.2023 32.2617 34.821 31.8807 33.3445C31.7378 32.7903 31.6296 32.2187 31.6166 31.6472C31.556 29.3913 32.8593 28.101 35.5828 28.088H35.5914ZM47.4294 38.4105C47.3471 38.2763 47.2908 38.1507 47.2042 38.0468C45.771 36.2412 44.1386 34.6348 42.3504 33.1843C42.1079 32.9851 41.9001 32.9808 41.6576 33.1843C39.8564 34.6478 38.2067 36.2585 36.7691 38.0901C36.5613 38.3542 36.5916 38.5317 36.7821 38.7699C38.211 40.5322 39.7914 42.1385 41.558 43.5674C41.8698 43.8185 42.0993 43.8359 42.424 43.5761C44.1906 42.1472 45.7883 40.5538 47.1999 38.7785C47.2821 38.6703 47.3471 38.5491 47.4294 38.4192V38.4105ZM43.5844 45.0049C45.2557 46.0008 46.9098 47.001 48.9102 47.0746C50.0663 47.1179 50.6898 46.3905 50.6291 45.2084C50.5469 43.5198 49.7891 42.0693 48.9838 40.6447C48.8582 40.4239 48.7067 40.2204 48.5724 40.0169C46.9098 41.6839 45.2817 43.3076 43.5844 45.0093V45.0049ZM35.3793 39.9779C34.9679 40.7443 34.5306 41.4847 34.1669 42.2598C33.7166 43.221 33.3399 44.2169 33.3355 45.2994C33.3355 46.3862 33.8551 46.9447 34.9289 47.0183C35.219 47.04 35.5178 47.0183 35.8079 46.9707C37.4403 46.7196 38.8648 45.9748 40.2331 45.1002C40.298 45.0569 40.337 44.9703 40.3586 44.94C38.7089 43.2946 37.0852 41.6752 35.3749 39.9693L35.3793 39.9779ZM35.4399 36.8084C35.5698 36.7132 35.678 36.6612 35.756 36.579C37.2195 35.1241 38.67 33.6563 40.1421 32.2101C40.4452 31.9157 40.3716 31.7425 40.0555 31.5866C39.012 31.0757 37.9902 30.5084 36.912 30.0928C36.2842 29.8503 35.5568 29.794 34.8727 29.781C34.0023 29.768 33.4481 30.2919 33.4221 31.1579C33.4048 31.8247 33.4741 32.5175 33.656 33.154C34.0283 34.4573 34.6345 35.6653 35.4442 36.8041L35.4399 36.8084ZM48.3603 36.9383C49.3778 35.635 49.984 34.44 50.391 33.1324C50.5339 32.6734 50.4603 32.4785 49.997 32.3486C48.9968 32.0715 48.356 31.3831 48.0615 30.4045C47.923 29.9412 47.6848 29.846 47.3038 30.0192C46.1823 30.5258 45.0739 31.054 43.9568 31.5779C43.5108 31.7858 43.6364 31.9806 43.9265 32.2621C45.3294 33.6346 46.7149 35.0245 48.0918 36.4188C48.2217 36.5486 48.2694 36.7608 48.3603 36.934V36.9383ZM51.9931 29.5775C52.0147 28.941 51.5514 28.4517 50.9019 28.4388C50.2091 28.4214 49.6593 28.9324 49.6376 29.6165C49.616 30.2573 50.1875 30.7769 50.9106 30.7856C51.4388 30.7899 51.9671 30.201 51.9931 29.5818V29.5775Z" fill="white"/>
<path d="M41.9778 41.2856C40.3758 41.2683 39.0682 39.9606 39.0941 38.3975C39.1201 36.7998 40.4277 35.4965 41.9952 35.5052C43.6145 35.5138 44.9265 36.8388 44.9005 38.4365C44.8745 40.0299 43.5669 41.3029 41.9778 41.2856ZM43.1512 38.3716C43.1383 37.7048 42.6576 37.2285 41.9952 37.2285C41.3327 37.2285 40.8347 37.7524 40.8434 38.4408C40.8521 39.0947 41.3543 39.5883 42.0038 39.5839C42.675 39.5839 43.1642 39.06 43.1512 38.3716Z" fill="white"/>
</g>
<defs>
<clipPath id="clip0_46_6940">
<rect width="84" height="84" fill="white"/>
</clipPath>
</defs>
</svg>
