<svg width="84" height="84" viewBox="0 0 84 84" fill="none" xmlns="http://www.w3.org/2000/svg">
<g clip-path="url(#clip0_2_22)">
<path d="M42 84C65.196 84 84 65.196 84 42C84 18.804 65.196 0 42 0C18.804 0 0 18.804 0 42C0 65.196 18.804 84 42 84Z" fill="#F9875A"/>
<path d="M42.5676 39.2757C39.2507 39.2757 36.5514 36.5763 36.5514 33.2595C36.5514 29.9426 39.2507 27.2432 42.5676 27.2432C45.8844 27.2432 48.5838 29.9426 48.5838 33.2595C48.5838 36.5763 45.8844 39.2757 42.5676 39.2757ZM42.5676 29.5135C40.5016 29.5135 38.8216 31.1935 38.8216 33.2595C38.8216 35.3254 40.5016 37.0054 42.5676 37.0054C44.6335 37.0054 46.3135 35.3254 46.3135 33.2595C46.3135 31.1935 44.6335 29.5135 42.5676 29.5135Z" fill="white"/>
<path d="M32.3513 44.0432C30.4103 44.0432 28.8324 42.4654 28.8324 40.5243C28.8324 38.5832 30.4103 37.0054 32.3513 37.0054C34.2924 37.0054 35.8703 38.5832 35.8703 40.5243C35.8703 42.4654 34.2924 44.0432 32.3513 44.0432ZM32.3513 39.2757C31.6635 39.2757 31.1027 39.8364 31.1027 40.5243C31.1027 41.2122 31.6635 41.773 32.3513 41.773C33.0392 41.773 33.6 41.2122 33.6 40.5243C33.6 39.8364 33.0392 39.2757 32.3513 39.2757Z" fill="white"/>
<path d="M52.7838 44.0432C50.8427 44.0432 49.2649 42.4654 49.2649 40.5243C49.2649 38.5832 50.8427 37.0054 52.7838 37.0054C54.7249 37.0054 56.3027 38.5832 56.3027 40.5243C56.3027 42.4654 54.7249 44.0432 52.7838 44.0432ZM52.7838 39.2757C52.0959 39.2757 51.5351 39.8364 51.5351 40.5243C51.5351 41.2122 52.0959 41.773 52.7838 41.773C53.4717 41.773 54.0324 41.2122 54.0324 40.5243C54.0324 39.8364 53.4717 39.2757 52.7838 39.2757Z" fill="white"/>
<path d="M49.9459 59.027H35.1892V49.1514C35.1892 45.083 38.4992 41.773 42.5676 41.773C46.6359 41.773 49.9459 45.083 49.9459 49.1514V59.027ZM37.4594 56.7568H47.6757V49.1514C47.6757 46.334 45.385 44.0432 42.5676 44.0432C39.7502 44.0432 37.4594 46.334 37.4594 49.1514V56.7568Z" fill="white"/>
<path d="M57.8919 58.0576H55.6216V51.517C55.6216 49.6531 54.3866 48.5838 52.2344 48.5838V46.3135C55.6716 46.3135 57.8919 48.3568 57.8919 51.517V58.0576Z" fill="white"/>
<path d="M29.7405 58.1189H27.4703V51.5783C27.4703 48.4158 29.6906 46.3748 33.1278 46.3748V48.6451C30.9756 48.6451 29.7405 49.7144 29.7405 51.5783V58.1189Z" fill="white"/>
</g>
<defs>
<clipPath id="clip0_2_22">
<rect width="84" height="84" fill="white"/>
</clipPath>
</defs>
</svg>
