<svg width="84" height="84" viewBox="0 0 84 84" fill="none" xmlns="http://www.w3.org/2000/svg">
<g clip-path="url(#clip0_2_15)">
<path d="M42 84C65.196 84 84 65.196 84 42C84 18.804 65.196 0 42 0C18.804 0 0 18.804 0 42C0 65.196 18.804 84 42 84Z" fill="#F27095"/>
<path d="M39.5027 43.1351C34.8713 43.1351 31.1027 39.3665 31.1027 34.7351C31.1027 30.1038 34.8713 26.3351 39.5027 26.3351C44.134 26.3351 47.9027 30.1038 47.9027 34.7351C47.9027 39.3665 44.134 43.1351 39.5027 43.1351ZM39.5027 28.6054C36.1222 28.6054 33.3729 31.3547 33.3729 34.7351C33.3729 38.1156 36.1222 40.8649 39.5027 40.8649C42.8831 40.8649 45.6324 38.1156 45.6324 34.7351C45.6324 31.3547 42.8831 28.6054 39.5027 28.6054Z" fill="white"/>
<path d="M51.3081 56.5297H49.0379C49.0379 51.3967 44.8628 47.2216 39.7297 47.2216C34.5967 47.2216 30.4216 51.3967 30.4216 56.5297H28.1514C28.1514 50.1457 33.3457 44.9514 39.7297 44.9514C46.1137 44.9514 51.3081 50.1457 51.3081 56.5297Z" fill="white"/>
<path d="M59.8489 34.7351H52.8973V37.0054H59.8489V34.7351Z" fill="white"/>
<path d="M59.8489 42.3496H50.173V44.6199H59.8489V42.3496Z" fill="white"/>
<path d="M59.8489 50.173H53.9802V52.4432H59.8489V50.173Z" fill="white"/>
</g>
<defs>
<clipPath id="clip0_2_15">
<rect width="84" height="84" fill="white"/>
</clipPath>
</defs>
</svg>
