<svg width="84" height="84" viewBox="0 0 84 84" fill="none" xmlns="http://www.w3.org/2000/svg">
<g clip-path="url(#clip0_2_12)">
<path d="M42 84C65.196 84 84 65.196 84 42C84 18.804 65.196 0 42 0C18.804 0 0 18.804 0 42C0 65.196 18.804 84 42 84Z" fill="#75E081"/>
<path d="M42.227 23.6108C32.4626 23.6108 24.5189 31.5545 24.5189 41.3189C24.5189 51.0834 32.4626 59.027 42.227 59.027C51.9915 59.027 59.9351 51.0834 59.9351 41.3189C59.9351 31.5545 51.9915 23.6108 42.227 23.6108ZM53.735 50.5408C52.9382 49.56 53.5648 46.9628 53.1243 45.8595C52.6703 44.7243 49.7189 45.1784 49.3738 43.7004C49.0288 42.2225 48.1297 41.5459 47.5395 42C46.9492 42.4541 45.1784 42 44.0432 42.5812C42.9081 43.1624 42.4541 45.1784 42.6811 46.3135C42.9081 47.4486 45.6324 49.2649 46.7676 50.8541C47.6189 52.0437 47.5758 54.1278 47.5031 55.0972C45.864 55.7261 44.0864 56.0757 42.227 56.0757C34.0904 56.0757 27.4703 49.4556 27.4703 41.3189C27.4703 37.5094 28.921 34.0336 31.2979 31.4137C31.6521 31.6498 32.2015 32.0494 32.3514 32.3514C32.5784 32.8054 32.1243 35.5297 33.0324 36.4378C33.9405 37.3459 36.8919 37.1189 37.573 38.2541C38.2541 39.3892 38.8216 39.7297 39.5027 39.7297C40.1838 39.7297 39.9568 37.9135 39.0487 37.2324C38.1405 36.5514 38.0248 32.7259 39.8977 32.7101C41.7707 32.6942 42.9081 32.9893 44.0432 31.5931C45.0308 30.3785 46.7063 28.5032 48.3204 27.8857C53.424 30.2105 56.9838 35.3549 56.9838 41.3212C56.9838 44.8083 55.7647 48.0139 53.735 50.543V50.5408Z" fill="white"/>
</g>
<defs>
<clipPath id="clip0_2_12">
<rect width="84" height="84" fill="white"/>
</clipPath>
</defs>
</svg>
