<svg width="32" height="32" viewBox="0 0 32 32" fill="none" xmlns="http://www.w3.org/2000/svg">
<g clip-path="url(#clip0_12_1670)">
<path d="M16 0C7.16308 0 0 7.16308 0 16C0 24.8369 7.16308 32 16 32C24.8369 32 32 24.8369 32 16C32 7.16308 24.8369 0 16 0ZM11.7662 21.7169C11.7662 21.8462 11.7662 21.8462 11.64 21.8462C10.6831 21.8462 9.72308 21.8462 8.76615 21.8462C8.64308 21.8462 8.64308 21.8462 8.64308 21.72C8.64308 18.4585 8.64308 15.1969 8.64308 11.9354C8.64308 11.8062 8.64308 11.8062 8.77231 11.8062C9.72923 11.8062 10.6892 11.8062 11.6462 11.8062C11.7662 11.8062 11.7662 11.8062 11.7662 11.9231C11.7662 13.5569 11.7662 15.1908 11.7662 16.8246C11.7662 18.4554 11.7662 20.0862 11.7662 21.7169ZM10.1877 10.52C9.24308 10.5323 8.34769 9.76615 8.34462 8.66462C8.34462 7.61846 9.16308 6.80308 10.1908 6.80308C11.2215 6.80308 12.0338 7.62462 12.0338 8.65846C12.0338 9.76308 11.1354 10.5323 10.1877 10.5169V10.52ZM23.2431 21.8462C22.2985 21.8462 21.3569 21.8462 20.4123 21.8462C20.32 21.8462 20.2738 21.801 20.2738 21.7108C20.2738 19.9569 20.2738 18.2 20.2738 16.4462C20.2738 16.0738 20.2215 15.7046 20.0892 15.3538C19.8738 14.7846 19.48 14.4308 18.8646 14.3631C18.3538 14.3077 17.8677 14.3754 17.4462 14.6985C17.0892 14.9723 16.9077 15.3508 16.8092 15.7785C16.7477 16.0523 16.7231 16.3292 16.7231 16.6092C16.7231 18.3108 16.7231 20.0154 16.7231 21.7169C16.7231 21.801 16.68 21.8431 16.5938 21.8431C15.6831 21.8431 14.7692 21.8431 13.8585 21.8431C13.7723 21.8431 13.7292 21.8 13.7292 21.7138C13.7292 18.4523 13.7292 15.1908 13.7292 11.9292C13.7292 11.8031 13.7292 11.8031 13.8492 11.8031C14.7662 11.8031 15.6862 11.8031 16.6031 11.8031C16.7231 11.8031 16.7231 11.8031 16.7231 11.92C16.7231 12.2831 16.7231 12.6462 16.7231 13.0123V13.1077C16.8123 12.9877 16.8892 12.8769 16.9754 12.7754C17.56 12.0862 18.2954 11.6585 19.1969 11.5415C19.9231 11.4462 20.6369 11.5138 21.3169 11.7938C22.1723 12.1477 22.7446 12.7785 23.0738 13.6338C23.2338 14.0462 23.3262 14.4769 23.3538 14.92C23.3723 15.2492 23.3846 15.5754 23.3846 15.9046C23.3846 17.8369 23.3846 19.7662 23.3846 21.6985C23.3846 21.7928 23.3374 21.84 23.2431 21.84V21.8462Z" fill="#007EBB"/>
</g>
<defs>
<clipPath id="clip0_12_1670">
<rect width="32" height="32" fill="white"/>
</clipPath>
</defs>
</svg>
