<svg width="21" height="20" viewBox="0 0 21 20" fill="none" xmlns="http://www.w3.org/2000/svg">
<path d="M5.20305 6.64355C3.93082 6.64355 2.65449 6.64355 1.38226 6.64355C1.21045 6.64355 1.21045 6.64356 1.21045 6.81537C1.21045 11.1516 1.21045 15.4878 1.21045 19.824C1.21045 19.9918 1.21045 19.9918 1.37408 19.9918C2.64631 19.9918 3.92263 19.9918 5.19486 19.9918C5.36259 19.9918 5.36259 19.9918 5.36259 19.8199C5.36259 17.6518 5.36259 15.4837 5.36259 13.3156C5.36259 11.1434 5.36259 8.97121 5.36259 6.799C5.36259 6.64356 5.36259 6.64355 5.20305 6.64355Z" fill="#CCCCCC"/>
<path d="M20.7642 10.7916C20.7315 10.2025 20.6047 9.63393 20.3919 9.08167C19.9542 7.94035 19.1934 7.10173 18.0561 6.63539C17.148 6.26313 16.203 6.17313 15.2376 6.29994C14.039 6.45948 13.0613 7.02401 12.284 7.94034C12.1695 8.07534 12.0672 8.22261 11.9486 8.38215V8.25533C11.9486 7.77262 11.9486 7.28991 11.9486 6.80311C11.9486 6.64766 11.9486 6.64766 11.789 6.64766C10.57 6.64766 9.34685 6.64766 8.1278 6.64766C7.96826 6.64766 7.96826 6.64766 7.96826 6.81538C7.96826 11.1516 7.96826 15.4878 7.96826 19.824C7.96826 19.9386 8.02553 19.9959 8.14007 19.9959C9.35094 19.9959 10.5659 19.9959 11.7768 19.9959C11.8913 19.9959 11.9486 19.94 11.9486 19.8281C11.9486 17.5659 11.9486 15.2997 11.9486 13.0375C11.9486 12.6652 11.9772 12.297 12.0631 11.9329C12.194 11.3643 12.4354 10.8612 12.9099 10.4971C13.4704 10.0675 14.1167 9.97755 14.7958 10.0512C15.618 10.1412 16.1375 10.6116 16.4239 11.3684C16.5998 11.8348 16.6693 12.3257 16.6693 12.8206C16.6775 15.1524 16.6693 17.4882 16.6693 19.82C16.6693 19.94 16.7307 20 16.8534 20C18.1093 20 19.3611 20 20.6169 20C20.7424 20 20.8051 19.9372 20.8051 19.8118C20.8051 17.2428 20.8051 14.6779 20.8051 12.1088C20.8051 11.6711 20.7888 11.2334 20.7642 10.7998V10.7916Z" fill="#CCCCCC"/>
<path d="M0.813477 2.47104C0.813477 3.93554 2.00798 4.95414 3.26385 4.93778C4.5279 4.95823 5.71832 3.93963 5.71832 2.46695C5.71832 1.08836 4.63835 0.000208784 3.26794 0.000208784C3.05522 0.000208784 1.57845 -0.0488799 1.0712 1.35835C0.907564 1.69379 0.813477 2.07014 0.813477 2.47513V2.47104Z" fill="#CCCCCC"/>
</svg>
