<svg width="13" height="17" viewBox="0 0 13 17" fill="none" xmlns="http://www.w3.org/2000/svg">
<path d="M6.33671 9.5297C4.41513 9.5297 2.85156 7.96614 2.85156 6.04455C2.85156 4.12297 4.41513 2.5594 6.33671 2.5594C8.2583 2.5594 9.82186 4.12297 9.82186 6.04455C9.82186 7.96614 8.2583 9.5297 6.33671 9.5297ZM6.33671 3.66831C5.02661 3.66831 3.96047 4.73445 3.96047 6.04455C3.96047 7.35465 5.02661 8.42079 6.33671 8.42079C7.64681 8.42079 8.71295 7.35465 8.71295 6.04455C8.71295 4.73445 7.64681 3.66831 6.33671 3.66831Z" fill="#798089"/>
<path d="M11.2474 14.6782H10.1385C10.1385 13.3871 9.06289 11.7475 7.85418 11.7475H4.82051C3.6118 11.7475 2.53616 13.3871 2.53616 14.6782H1.42725C1.42725 12.8105 2.91002 10.6386 4.82051 10.6386H7.85418C9.76467 10.6386 11.2474 12.8105 11.2474 14.6782Z" fill="#798089"/>
</svg>
