<svg width="32" height="32" viewBox="0 0 32 32" fill="none" xmlns="http://www.w3.org/2000/svg">
<g clip-path="url(#clip0_12_1666)">
<path d="M15.874 4.00308C15.9325 3.93231 15.9879 3.86154 16.0463 3.79077C16.1725 3.93231 16.1417 4.05231 15.9971 4.15693C15.9571 4.10769 15.914 4.05539 15.874 4.00308Z" fill="#F4F4F4"/>
<path d="M16 32C24.8366 32 32 24.8366 32 16C32 7.16344 24.8366 0 16 0C7.16344 0 0 7.16344 0 16C0 24.8366 7.16344 32 16 32Z" fill="#B1292A"/>
<path d="M13.1847 24.8C13.2094 24.7569 13.2278 24.7231 13.2494 24.6892C13.5663 24.1508 13.8678 23.6031 14.114 23.0277C14.2801 22.6431 14.3847 22.24 14.4894 21.8369C14.637 21.2677 14.7847 20.6985 14.9324 20.1323C14.9386 20.1108 14.9478 20.0892 14.954 20.0646C14.9632 20.0677 14.9724 20.0708 14.9755 20.0739C15.2032 20.4308 15.5324 20.6677 15.9109 20.8431C16.394 21.0677 16.9017 21.1508 17.4309 21.1108C18.9386 20.9969 20.0863 20.2616 20.9478 19.0523C21.437 18.3631 21.7478 17.5939 21.9294 16.7723C22.0678 16.1446 22.1263 15.5108 22.0894 14.8708C22.0155 13.5846 21.5478 12.4616 20.6678 11.52C19.8924 10.6862 18.9355 10.1539 17.834 9.87079C17.1878 9.70463 16.5324 9.64925 15.8647 9.68002C15.1724 9.71079 14.4955 9.81233 13.837 10.0308C12.5417 10.4585 11.4986 11.2185 10.7663 12.3816C10.3386 13.0585 10.0801 13.8 9.96628 14.5908C9.91397 14.9539 9.88628 15.32 9.91397 15.6862C9.9909 16.7385 10.3232 17.6954 11.0124 18.5108C11.237 18.7785 11.5047 18.9939 11.8217 19.1477C11.8617 19.1662 11.9017 19.1846 11.9447 19.1939C12.0401 19.2154 12.0986 19.1846 12.1386 19.0954C12.1509 19.0646 12.1632 19.0339 12.1694 19C12.2494 18.6708 12.3263 18.3416 12.4094 18.0123C12.4401 17.8862 12.4278 17.7723 12.3447 17.6708C12.0617 17.3231 11.8955 16.9169 11.7724 16.4923C11.2678 14.6954 12.1663 12.5077 14.1755 11.6923C14.594 11.5231 15.0309 11.4216 15.4832 11.3816C16.1755 11.3231 16.8524 11.3816 17.5047 11.6308C18.757 12.1139 19.5294 13.0154 19.8309 14.3231C19.9294 14.7477 19.9417 15.1816 19.9171 15.6154C19.8894 16.1477 19.8063 16.6708 19.6463 17.1785C19.4863 17.6923 19.2524 18.1723 18.914 18.5939C18.5755 19.0123 18.1663 19.3354 17.6463 19.5016C17.2647 19.6216 16.877 19.6677 16.4863 19.5508C15.9817 19.4 15.6432 19.08 15.5109 18.56C15.4524 18.3231 15.4647 18.0862 15.5294 17.8523C15.674 17.3416 15.8217 16.8339 15.9724 16.3231C16.0801 15.96 16.1878 15.5939 16.2555 15.2216C16.314 14.8954 16.3355 14.5693 16.2463 14.2431C16.2063 14.0954 16.1478 13.9569 16.0617 13.8308C15.8463 13.52 15.5386 13.3785 15.1694 13.3631C14.6894 13.3446 14.3047 13.5446 13.9909 13.8954C13.6986 14.2216 13.5263 14.6093 13.4432 15.0339C13.3078 15.72 13.3786 16.3908 13.637 17.04C13.6586 17.0954 13.6555 17.1416 13.6432 17.1939C13.3694 18.3477 13.0986 19.4985 12.8247 20.6523C12.7263 21.0708 12.6247 21.4892 12.5324 21.9077C12.4586 22.2369 12.437 22.5723 12.4309 22.9077C12.4186 23.44 12.4463 23.9692 12.5078 24.4954C12.5078 24.5139 12.5078 24.5354 12.5078 24.5539C12.2555 24.5416 10.9663 23.84 10.3355 23.3723C9.66474 22.8769 9.06782 22.3016 8.54474 21.6523C8.02166 20.9969 7.59089 20.2892 7.25551 19.52C6.92013 18.7569 6.69243 17.9631 6.56628 17.1385C6.44013 16.3139 6.42166 15.4862 6.51397 14.6554C7.12013 9.17848 12.2155 5.28925 17.7509 6.31079C23.1817 7.31386 26.7478 12.7569 25.1817 18.2831C23.6863 23.5662 18.1878 26.3539 13.1878 24.7908L13.1847 24.8Z" fill="white"/>
</g>
<defs>
<clipPath id="clip0_12_1666">
<rect width="32" height="32" fill="white"/>
</clipPath>
</defs>
</svg>
