<svg width="17" height="16" viewBox="0 0 17 16" fill="none" xmlns="http://www.w3.org/2000/svg">
<path d="M7.3761 12.6733C4.31867 12.6733 1.83154 10.1861 1.83154 7.12872C1.83154 4.0713 4.31867 1.58417 7.3761 1.58417C10.4335 1.58417 12.9207 4.0713 12.9207 7.12872C12.9207 10.1861 10.4335 12.6733 7.3761 12.6733ZM7.3761 2.69308C4.93016 2.69308 2.94045 4.68278 2.94045 7.12872C2.94045 9.57466 4.93016 11.5644 7.3761 11.5644C9.82204 11.5644 11.8117 9.57466 11.8117 7.12872C11.8117 4.68278 9.82204 2.69308 7.3761 2.69308Z" fill="#798089"/>
<path d="M11.372 10.1876L10.5879 10.9717L13.3782 13.762L14.1624 12.9779L11.372 10.1876Z" fill="#798089"/>
</svg>
