<svg width="32" height="32" viewBox="0 0 32 32" fill="none" xmlns="http://www.w3.org/2000/svg">
<g clip-path="url(#clip0_12_1664)">
<path d="M16.0064 31.9806C7.2894 32.0971 -0.0616063 24.8691 -0.000105145 15.8997C0.061396 7.16652 7.16316 -0.029105 16.097 2.71126e-05C24.9143 0.0291592 32.2459 7.41253 31.9934 16.505C31.7636 24.7947 24.7946 32.0939 16.0064 31.9806ZM25.3286 9.55212C24.6716 9.83373 24.0371 10.1607 23.3315 10.3225C23.0693 10.384 22.9074 10.329 22.7165 10.1445C21.9946 9.44854 21.0883 9.14751 20.1108 9.17017C17.7446 9.22843 16.0614 11.2547 16.3818 13.6177C16.4175 13.8734 16.356 13.8863 16.152 13.8766C15.1227 13.8345 14.1354 13.5918 13.1773 13.239C11.3226 12.556 9.77857 11.4295 8.46763 9.86934C7.50951 11.9021 7.93354 13.5821 9.67175 15.0678C9.09235 14.948 8.62624 14.893 8.2022 14.6761C8.00799 14.579 7.8947 14.5628 7.9303 14.8542C8.13099 16.5341 9.0179 17.667 10.6007 18.2561C10.6914 18.2885 10.8403 18.227 10.8597 18.405C10.3483 18.5248 9.83684 18.5766 9.27038 18.4212C9.89834 20.1044 11.1122 20.9266 12.8472 21.1435C11.1672 22.3961 9.3513 22.8849 7.3509 22.7716C8.85282 23.7459 10.5004 24.28 12.2613 24.4063C13.9704 24.5293 15.6471 24.3092 17.2493 23.6618C19.6058 22.7101 21.3764 21.0981 22.5999 18.8841C23.5904 17.0909 24.1019 15.1746 24.0371 13.1159C24.0306 12.9638 24.1245 12.9088 24.2249 12.8279C24.8528 12.3197 25.429 11.7629 25.9145 11.0184C25.2089 11.2612 24.5744 11.4975 23.7944 11.5655C24.5647 11.0152 25.1021 10.4067 25.3643 9.58773C25.4031 9.55859 25.4128 9.52623 25.3772 9.49062C25.361 9.51004 25.3448 9.52946 25.3319 9.54888L25.3286 9.55212Z" fill="#00A2F4"/>
</g>
<defs>
<clipPath id="clip0_12_1664">
<rect width="32" height="31.9806" fill="white"/>
</clipPath>
</defs>
</svg>
