<svg width="25" height="20" viewBox="0 0 25 20" fill="none" xmlns="http://www.w3.org/2000/svg">
<path d="M24.0928 0.548904C23.7494 1.6215 23.0414 2.41428 22.0366 3.13923C23.0583 3.0502 23.8893 2.74072 24.8135 2.42276C24.1776 3.39784 23.4229 4.12704 22.6005 4.79264C22.4691 4.89862 22.3503 4.97069 22.3546 5.16995C22.4436 7.86627 21.7695 10.376 20.4722 12.7247C18.8697 15.6245 16.5507 17.74 13.4644 18.9822C11.3658 19.8301 9.16976 20.1184 6.93131 19.9573C4.62503 19.7877 2.46712 19.0882 0.5 17.8164C3.12425 17.9647 5.49836 17.3203 7.69866 15.6839C5.42629 15.3998 3.83648 14.323 3.01402 12.1185C3.75593 12.3177 4.42577 12.2541 5.09561 12.0973C5.07017 11.8684 4.87516 11.9489 4.75645 11.9023C2.6791 11.1307 1.51748 9.64686 1.25887 7.44656C1.21223 7.065 1.36062 7.0862 1.61499 7.21339C2.17036 7.49743 2.77661 7.5695 3.53972 7.72637C1.26311 5.7762 0.707735 3.5759 1.96262 0.917739C3.67962 2.96117 5.70186 4.43652 8.13109 5.33105C9.39022 5.79316 10.679 6.11112 12.0272 6.16623C12.2943 6.17895 12.3748 6.15775 12.3282 5.82707C11.9085 2.73224 14.113 0.0825594 17.2121 0.00200905C18.4924 -0.0319069 19.6752 0.362366 20.6249 1.2781C20.875 1.51975 21.087 1.58758 21.4304 1.51127C22.3546 1.29929 23.1855 0.871105 24.0461 0.502269C24.0589 0.519227 24.0758 0.540425 24.0885 0.557383L24.0928 0.548904Z" fill="#CCCCCC"/>
</svg>
