<svg width="93" height="93" viewBox="0 0 93 93" fill="none" xmlns="http://www.w3.org/2000/svg">
<path d="M91.5565 46.5007C91.5363 55.8541 88.6262 65.0252 83.2009 72.6514C77.9723 79.9999 70.4946 85.7224 62.0218 88.8195C53.1122 92.0757 43.2422 92.4388 34.1185 89.8379C25.3969 87.3512 17.562 82.1885 11.7722 75.2132C5.86814 68.0991 2.26091 59.1652 1.57533 49.9464C0.882524 40.6234 3.08533 31.2179 7.92342 23.2141C12.627 15.4332 19.6737 9.18551 27.9483 5.42448C36.4949 1.5405 46.268 0.465713 55.4625 2.33321C64.4531 4.15731 72.7509 8.75589 79.0874 15.3869C85.3994 21.9918 89.5895 30.4614 91.0156 39.4849C91.383 41.8052 91.5493 44.1544 91.5536 46.5036C91.5551 47.4337 93.0014 47.4366 93 46.5036C92.9783 36.8826 89.9916 27.3817 84.3913 19.5457C78.95 11.9311 71.2785 6.05518 62.4933 2.82359C53.3335 -0.545425 43.1135 -0.904169 33.7309 1.77195C24.7258 4.33957 16.577 9.68457 10.6267 16.9159C4.57509 24.2687 0.889755 33.3631 0.141985 42.8597C-0.618803 52.5154 1.69249 62.3245 6.72149 70.6045C11.5625 78.5721 18.8044 85.0295 27.3033 88.8716C36.2056 92.8959 46.2709 94.0126 55.8444 92.0699C65.0606 90.1995 73.6129 85.4403 80.1086 78.6445C86.6273 71.824 91.0055 63.0434 92.4403 53.7117C92.8076 51.3249 92.9942 48.9179 93 46.5036C93.0014 45.572 91.5551 45.572 91.5536 46.5036L91.5565 46.5007Z" fill="#816CDA"/>
<path d="M45.6648 38H59.1687V33.7914H65L52.1069 21L39 34.0036H45.6648V38Z" fill="#816CDA"/>
<path d="M33.0026 44.9314C33.0026 48.8038 33.0026 52.6747 33.0026 56.5471C33.0026 58.3054 32.9968 60.0637 33.0026 61.822C33.0112 64.6301 35.0497 66.9169 37.884 66.9735C40.8835 67.0331 43.8903 66.9735 46.8913 66.9735H66.3955C66.6325 66.9735 66.871 66.9779 67.108 66.9735C68.8233 66.9401 70.4136 66.0603 71.2999 64.5604C72.1734 63.0838 71.9823 61.3138 71.9823 59.6659V45.8955C71.9823 45.4425 72.0039 44.9793 71.9636 44.5278C71.8056 42.7477 70.7095 41.1636 69.0891 40.4362C67.9226 39.9135 66.6756 40.0064 65.4344 40.0064H59.8462C54.8398 40.0064 49.8319 40.0064 44.8255 40.0064H39.3766C38.0219 40.0064 36.7089 39.9396 35.4706 40.6467C33.9363 41.5237 33.0442 43.1717 33.0026 44.9314C32.981 45.8665 34.4176 45.865 34.4391 44.9314C34.4808 43.1586 35.7895 41.6181 37.5751 41.47C37.851 41.4467 38.1325 41.4583 38.4083 41.4583H66.8021C68.8563 41.4583 70.5141 42.8377 70.5472 44.9997C70.5687 46.456 70.5472 47.9137 70.5472 49.3686C70.5472 53.5067 70.5587 57.6462 70.5472 61.7843C70.5414 63.8852 69.1092 65.5071 66.9787 65.5216C65.9056 65.5288 64.834 65.5216 63.7608 65.5216H38.7158C38.4443 65.5216 38.1713 65.5259 37.8998 65.5216C36.4877 65.4969 35.1919 64.6649 34.6718 63.3117C34.2064 62.0979 34.4391 60.4499 34.4391 59.1809C34.4391 54.7641 34.4391 50.3472 34.4391 45.9318V44.9329C34.4391 43.9993 33.0026 43.9964 33.0026 44.9329V44.9314Z" fill="#816CDA"/>
<path d="M71 46H33V52H71V46Z" fill="#816CDA"/>
<path d="M42 70H56C56 70 53.5365 74.7553 51.7093 74.9922C49.8821 75.229 42 70 42 70Z" fill="#816CDA"/>
<path d="M29.8542 62.9985L21.8041 57.8869C20.0009 56.7417 19.4583 54.337 20.5928 52.5143L30.4693 36.6472C31.4921 35.0035 33.6391 34.5064 35.2683 35.5372L38 37.266C38 37.266 31.2324 37.266 30.0718 43.1313C28.9112 48.9966 29.8542 63 29.8542 63V62.9985Z" fill="#816CDA"/>
</svg>
